<svg width="40" height="44" viewBox="0 0 40 44" fill="none" xmlns="http://www.w3.org/2000/svg">
<circle cx="20" cy="24" r="20" fill="url(#paint0_linear_12_43)"/>
<path d="M29.7684 12.393L21.6154 34H18.3604L10.2074 12.393H13.2144L20.0034 31.024L26.7924 12.393H29.7684Z" fill="#4ADE80"/>
<path d="M25.7384 19.15C25.1984 18.11 24.4484 17.33 23.4884 16.81C22.5284 16.27 21.4184 16 20.1584 16C18.7784 16 17.5484 16.31 16.4684 16.93C15.3884 17.55 14.5384 18.43 13.9184 19.57C13.3184 20.71 13.0184 22.03 13.0184 23.53C13.0184 25.03 13.3184 26.36 13.9184 27.52C14.5384 28.66 15.3884 29.54 16.4684 30.16C17.5484 30.78 18.7784 31.09 20.1584 31.09C22.0184 31.09 23.5284 30.57 24.6884 29.53C25.8484 28.49 26.5584 27.08 26.8184 25.3H18.9884V22.57H30.4784V25.24C30.2584 26.86 29.6784 28.35 28.7384 29.71C27.8184 31.07 26.6084 32.16 25.1084 32.98C23.6284 33.78 21.9784 34.18 20.1584 34.18C18.1984 34.18 16.4084 33.73 14.7884 32.83C13.1684 31.91 11.8784 30.64 10.9184 29.02C9.97844 27.4 9.50844 25.57 9.50844 23.53C9.50844 21.49 9.97844 19.66 10.9184 18.04C11.8784 16.42 13.1684 15.16 14.7884 14.26C16.4284 13.34 18.2184 12.88 20.1584 12.88C22.3784 12.88 24.3484 13.43 26.0684 14.53C27.8084 15.61 29.0684 17.15 29.8484 19.15H25.7384Z" fill="white"/>
<defs>
<linearGradient id="paint0_linear_12_43" x1="20" y1="4" x2="20" y2="44" gradientUnits="userSpaceOnUse">
<stop stop-color="#1F2937"/>
<stop offset="0.5" stop-color="#2E3D52"/>
<stop offset="1"/>
</linearGradient>
</defs>
</svg>
